<?xml version="1.0" standalone="no"?>
<!DOCTYPE svg PUBLIC "-//W3C//DTD SVG 20010904//EN"
 "http://www.w3.org/TR/2001/REC-SVG-20010904/DTD/svg10.dtd">
<svg version="1.0" xmlns="http://www.w3.org/2000/svg"
 width="1024.000000pt" height="1024.000000pt" viewBox="0 0 1024.000000 1024.000000"
 preserveAspectRatio="xMidYMid meet">

<g transform="translate(0.000000,1024.000000) scale(0.100000,-0.100000)"
fill="#000000" stroke="none">
<path d="M4233 8586 c-102 -20 -165 -42 -268 -95 -72 -36 -109 -64 -181 -136
-50 -49 -105 -115 -122 -145 l-31 -54 -78 2 c-323 11 -625 -187 -750 -494 -37
-91 -48 -141 -58 -261 l-8 -83 -74 -36 c-128 -63 -256 -201 -336 -360 -88
-175 -107 -416 -47 -593 l19 -56 -28 -30 c-84 -91 -177 -267 -212 -401 -70
-267 -7 -572 158 -765 68 -79 66 -67 34 -161 -74 -220 -66 -375 29 -573 84
-172 195 -284 366 -365 l81 -38 6 -99 c8 -124 27 -197 77 -298 100 -203 307
-369 536 -431 33 -8 109 -17 169 -19 l110 -4 37 -49 c100 -134 327 -280 501
-322 231 -56 440 -26 634 91 85 52 192 156 221 217 20 40 26 40 43 0 18 -43
143 -166 210 -205 54 -32 177 -72 299 -98 160 -33 374 -27 580 16 191 41 247
44 403 26 263 -31 590 -18 731 28 184 60 377 187 450 295 179 267 181 272 211
415 15 73 16 237 15 1862 -1 1978 4 1838 -69 1930 -82 104 -590 605 -961 948
-47 43 -133 125 -193 181 -59 57 -123 115 -142 130 l-36 27 -517 1 c-458 1
-525 -1 -592 -16 -157 -37 -268 -110 -370 -246 l-48 -62 -51 65 c-68 86 -137
139 -248 191 -150 70 -352 98 -500 70z m299 -210 c147 -32 255 -115 338 -261
l45 -80 2 -2315 c1 -1335 -2 -2340 -7 -2374 -5 -34 -28 -97 -54 -150 -69 -142
-161 -218 -311 -256 -136 -35 -311 -23 -445 30 -123 49 -262 171 -336 296 -30
50 -46 68 -60 67 -11 -2 -52 -8 -91 -15 -93 -15 -195 0 -300 43 -252 105 -400
362 -364 634 15 107 14 109 -95 136 -200 52 -343 185 -407 382 -42 131 -21
320 46 409 24 32 57 92 57 103 0 3 -43 51 -95 107 -72 77 -106 122 -136 182
-78 160 -88 335 -30 536 44 150 96 220 227 307 59 39 64 54 37 106 -100 193
-109 401 -24 591 58 128 202 243 351 281 36 8 76 21 88 27 26 13 26 16 2 150
-14 82 -1 187 37 303 23 72 33 87 97 150 77 77 169 131 271 160 49 15 84 17
200 12 77 -3 149 -7 159 -9 16 -2 26 13 55 83 20 47 46 101 58 121 65 101 241
213 388 247 62 14 223 12 297 -3z m1638 -3 l275 -6 3 -430 c3 -383 5 -436 22
-488 37 -119 109 -203 226 -260 l69 -34 475 -7 c430 -7 476 -9 488 -25 9 -13
13 -364 15 -1657 1 -903 1 -1695 0 -1761 -4 -213 -54 -349 -179 -483 -174
-188 -324 -243 -601 -221 -213 16 -501 22 -634 11 -108 -8 -133 -13 -171 -36
l-45 -26 -269 0 c-295 0 -373 8 -451 46 -116 56 -187 149 -223 290 -20 76 -20
118 -20 2391 0 2099 2 2321 16 2386 9 40 25 88 35 108 40 79 175 171 289 195
64 14 292 17 680 7z m1148 -787 c122 -121 222 -222 222 -225 0 -12 -724 4
-745 16 -34 20 -103 96 -115 126 -12 33 -27 619 -16 660 6 27 13 22 219 -165
116 -106 312 -291 435 -412z"/>
<path d="M4475 8099 c-117 -40 -268 -175 -320 -286 l-26 -53 -88 0 c-179 0
-331 -67 -473 -210 -74 -75 -93 -101 -136 -191 -66 -136 -77 -187 -76 -339 1
-112 4 -134 33 -218 17 -51 31 -94 31 -96 0 -2 -28 -17 -62 -35 -212 -107
-361 -293 -434 -538 -21 -72 -26 -111 -28 -208 0 -66 3 -144 7 -174 7 -49 7
-53 -10 -46 -10 4 -54 9 -99 12 -65 5 -88 2 -118 -12 -38 -18 -76 -66 -76 -95
0 -32 22 -92 41 -111 19 -19 28 -20 108 -14 55 5 115 3 160 -5 70 -12 72 -13
117 -68 70 -87 138 -138 261 -197 l111 -55 -39 -77 c-62 -123 -74 -183 -74
-368 0 -159 0 -161 34 -245 51 -125 96 -197 175 -275 79 -78 215 -163 306
-189 30 -9 97 -19 148 -23 l92 -6 -6 -106 c-11 -191 42 -346 160 -465 152
-156 410 -205 517 -100 58 56 66 84 39 132 -32 56 -58 66 -127 46 -211 -61
-424 174 -384 426 11 69 20 88 72 154 22 27 39 54 39 61 0 16 -96 82 -130 90
-14 3 -45 -1 -70 -10 -112 -39 -225 -28 -354 34 -186 91 -270 216 -295 441
-21 192 25 351 121 412 26 17 27 20 21 85 -6 80 12 164 56 250 49 98 131 226
169 266 46 47 124 77 202 77 73 0 87 5 105 41 32 61 10 146 -42 167 -15 7 -74
16 -131 21 -125 12 -173 33 -240 106 -84 91 -107 172 -100 338 4 84 9 106 35
156 l31 59 -40 39 c-137 132 -160 424 -48 612 48 80 75 108 154 155 132 79
282 101 426 62 l65 -18 22 26 c29 34 38 88 24 138 -11 36 -10 43 17 91 56 100
185 164 304 151 76 -9 98 8 98 76 0 53 -23 91 -70 115 -41 21 -134 18 -205 -6z
m-1005 -1707 c0 -222 81 -395 242 -515 l68 -51 -54 -56 c-94 -97 -178 -212
-222 -307 -24 -51 -46 -93 -48 -93 -20 0 -129 58 -171 90 -97 75 -154 184
-176 343 -18 119 -2 232 49 365 44 112 62 139 138 218 45 46 144 114 167 114
4 0 7 -49 7 -108z"/>
<path d="M4273 7140 c-31 -11 -55 -15 -58 -9 -4 5 -24 9 -46 9 -91 0 -115 -96
-40 -164 27 -25 27 -33 -8 -99 -38 -73 -55 -175 -49 -306 6 -120 26 -183 87
-277 115 -179 288 -274 503 -277 l102 -2 22 33 c27 39 42 135 25 156 -7 8 -42
17 -84 21 -172 16 -264 53 -346 139 -83 88 -117 226 -92 371 19 107 47 150
166 252 33 29 37 36 31 65 -11 56 -77 109 -133 107 -15 0 -52 -9 -80 -19z"/>
<path d="M4422 5475 c-79 -22 -141 -65 -169 -118 -17 -35 -5 -82 32 -117 33
-31 95 -24 210 25 116 49 155 78 155 113 0 81 -112 129 -228 97z"/>
<path d="M4144 4817 c-107 -58 -142 -125 -96 -184 24 -32 66 -41 163 -36 94 5
142 25 184 74 88 105 -112 221 -251 146z"/>
<path d="M2874 4671 c-86 -52 -85 -155 2 -196 70 -33 225 0 254 54 28 52 -3
121 -66 147 -50 21 -152 18 -190 -5z"/>
<path d="M5611 7092 c-44 -43 -43 -98 1 -143 l32 -32 131 6 c71 3 146 11 166
17 32 9 39 17 58 70 12 33 19 65 16 70 -3 6 2 11 12 11 42 3 -93 17 -234 24
l-152 8 -30 -31z"/>
<path d="M5629 6614 c-34 -17 -63 -77 -54 -111 3 -15 21 -41 40 -60 l33 -33
805 0 805 0 31 35 c41 47 48 80 26 121 -35 66 1 63 -870 63 -649 -1 -795 -3
-816 -15z"/>
<path d="M5616 6100 c-19 -17 -38 -40 -41 -51 -10 -30 13 -86 47 -114 l31 -26
796 2 c627 2 802 5 822 15 32 16 62 85 54 124 -3 15 -17 38 -31 51 l-26 24
-808 3 -809 2 -35 -30z"/>
<path d="M5626 5615 c-11 -6 -28 -25 -39 -42 -23 -40 -17 -77 22 -124 l28 -33
349 -4 c192 -2 557 -1 812 3 l463 7 29 25 c53 44 50 123 -4 159 -23 15 -99 16
-833 18 -522 0 -814 -3 -827 -9z"/>
<path d="M5609 5091 c-33 -34 -37 -69 -13 -111 38 -64 -9 -61 871 -55 l798 5
33 35 c42 45 43 86 3 126 l-29 29 -817 0 -817 0 -29 -29z"/>
<path d="M5633 4621 c-54 -34 -66 -77 -38 -131 28 -55 28 -55 575 -55 278 0
637 1 799 3 l294 2 33 36 c43 45 44 81 5 123 l-29 31 -549 0 c-303 0 -664 3
-804 6 -244 5 -255 5 -286 -15z"/>
<path d="M5614 4108 c-47 -41 -47 -91 -2 -137 l32 -33 161 3 c88 1 453 2 810
0 l650 -2 27 31 c52 57 47 113 -13 149 -31 19 -60 19 -832 19 l-800 -1 -33
-29z"/>
<path d="M6352 3570 c-77 -76 -27 -187 87 -192 54 -2 93 26 105 76 27 106
-116 193 -192 116z"/>
<path d="M6869 7711 c-31 -30 -39 -46 -39 -74 0 -67 91 -139 155 -123 42 11
85 63 85 104 0 67 -63 132 -129 132 -26 0 -42 -9 -72 -39z"/>
<path d="M4980 2483 c-19 -10 -45 -34 -58 -53 -61 -91 30 -217 141 -196 48 9
105 60 113 100 18 97 -109 193 -196 149z"/>
</g>
</svg>
